<svg width="300" height="300" viewBox="0 0 300 300" fill="none" xmlns="http://www.w3.org/2000/svg">
<path d="M245.78 236.872C245.744 236.872 245.744 236.872 245.708 236.872H54.4756C49.5076 236.872 45.1156 233.668 43.5676 228.952C42.0196 224.236 43.7116 219.052 47.7436 216.136C60.6676 206.776 68.3716 191.656 68.3716 175.672V144.64C68.3716 99.5679 105.02 62.9199 150.092 62.9199C195.164 62.9199 231.812 99.5679 231.812 144.64V175.672C231.812 191.332 239.228 206.2 251.72 215.596C255.032 217.612 257.228 221.248 257.228 225.388C257.264 231.76 252.116 236.872 245.78 236.872ZM80.4316 213.976H219.788C212.768 202.6 208.916 189.352 208.916 175.672V144.64C208.916 112.204 182.528 85.8519 150.092 85.8519C117.656 85.8519 91.3036 112.24 91.3036 144.676V175.708C91.3036 189.352 87.4156 202.6 80.4316 213.976Z" />
<path d="M150.092 85.852C131.66 85.852 116.684 70.84 116.684 52.408C116.684 33.976 131.66 19 150.092 19C168.524 19 183.5 33.976 183.5 52.408C183.536 70.876 168.524 85.852 150.092 85.852ZM150.092 41.968C144.296 41.968 139.616 46.684 139.616 52.444C139.616 58.24 144.332 62.956 150.092 62.956C155.888 62.956 160.568 58.24 160.568 52.444C160.604 46.648 155.888 41.968 150.092 41.968Z" />
<path d="M150.092 280.792C131.66 280.792 116.684 265.816 116.684 247.384V225.424C116.684 219.088 121.832 213.976 128.132 213.976C134.468 213.976 139.58 219.124 139.58 225.424V247.384C139.58 253.18 144.296 257.86 150.056 257.86C155.852 257.86 160.532 253.144 160.532 247.384V225.424C160.532 219.088 165.68 213.976 171.98 213.976C178.316 213.976 183.428 219.124 183.428 225.424V247.384C183.536 265.816 168.524 280.792 150.092 280.792Z" />
</svg>
