<svg width="300" height="300" viewBox="0 0 300 300" fill="none" xmlns="http://www.w3.org/2000/svg">
<path d="M169.6 217.8C207.501 217.8 226.452 217.8 238.225 206.025C250 194.252 250 175.301 250 137.4C250 99.499 250 80.5487 238.225 68.7743C226.452 57 207.501 57 169.6 57H129.4C91.499 57 72.5487 57 60.7743 68.7743C49 80.5487 49 99.499 49 137.4C49 175.301 49 194.252 60.7743 206.025C67.3387 212.59 76.1339 215.495 89.2 216.78" stroke-width="16" stroke-linecap="round" stroke-linejoin="round"/>
<path d="M169.592 217.8C157.165 217.8 143.484 222.817 130.986 229.307C110.912 239.73 100.875 244.942 95.9292 241.621C90.9831 238.3 91.9193 228.002 93.7917 207.405L94.2172 202.725" stroke-width="16" stroke-linecap="round"/>
</svg>
