<svg width="300" height="300" viewBox="0 0 300 300" fill="none" xmlns="http://www.w3.org/2000/svg">
<path d="M79.6724 81.1509L79.6613 81.1617L79.6504 81.1726C63.6898 97.1332 55.5 117.432 55.5 140.649C55.5 190.762 95.7445 226.786 150 226.786C157.276 226.786 163.541 226.401 169.074 225.211L224.43 245.039L227.773 246.237V242.686V190.834C238.647 176.317 244.5 158.898 244.5 140.649C244.5 90.5425 204.265 54.5217 150.02 54.5131C122.651 54.0903 97.3272 63.9267 79.6724 81.1509ZM215.799 184.662L215.728 184.75L215.665 184.845L214.829 186.099L214.409 186.729V187.486V227.429L170.914 211.895L170.101 211.605L169.282 211.878L168.23 212.229C163.004 213.02 157.333 213.422 150 213.422C102.621 213.422 68.8636 182.522 68.8636 140.649C68.8636 121.205 75.7333 103.876 89.0284 90.5748C103.961 76.0525 125.876 67.8767 150 67.8767C197.379 67.8767 231.136 98.777 231.136 140.649C231.136 156.825 225.884 172.157 215.799 184.662Z" stroke-width="5"/>
<path d="M149.999 122.921C140.246 122.921 132.271 130.896 132.271 140.649C132.271 150.401 140.246 158.376 149.999 158.376C159.751 158.376 167.726 150.401 167.726 140.649C167.726 130.896 159.751 122.921 149.999 122.921ZM149.999 148.012C145.951 148.012 142.635 144.696 142.635 140.649C142.635 136.601 145.951 133.285 149.999 133.285C154.046 133.285 157.362 136.601 157.362 140.649C157.362 144.696 154.046 148.012 149.999 148.012Z" stroke-width="2"/>
<path d="M103.999 122.921C94.2465 122.921 86.2715 130.896 86.2715 140.649C86.2715 150.401 94.2465 158.376 103.999 158.376C113.751 158.376 121.726 150.401 121.726 140.649C121.726 130.896 113.751 122.921 103.999 122.921ZM103.999 148.012C99.951 148.012 96.6351 144.696 96.6351 140.649C96.6351 136.601 99.951 133.285 103.999 133.285C108.046 133.285 111.362 136.601 111.362 140.649C111.362 144.696 108.046 148.012 103.999 148.012Z" stroke-width="2"/>
<path d="M196.001 122.921C186.248 122.921 178.273 130.896 178.273 140.649C178.273 150.401 186.248 158.376 196.001 158.376C205.753 158.376 213.728 150.401 213.728 140.649C213.728 130.896 205.753 122.921 196.001 122.921ZM196.001 148.012C191.953 148.012 188.637 144.696 188.637 140.649C188.637 136.601 191.953 133.285 196.001 133.285C200.048 133.285 203.364 136.601 203.364 140.649C203.364 144.696 200.048 148.012 196.001 148.012Z" stroke-width="2"/>
</svg>
