<svg width="300" height="300" viewBox="0 0 300 300" fill="none" xmlns="http://www.w3.org/2000/svg">
<path d="M197.24 73.6667C218.94 73.6667 236.3 91 236.3 112.667C236.3 134.333 193.985 182 149.5 218.833C105.015 180.917 62.7 133.25 62.7 112.667C62.7 91 80.06 73.6667 101.76 73.6667C127.8 73.6667 149.5 106.167 149.5 106.167C149.5 106.167 170.115 73.6667 197.24 73.6667ZM197.24 52C177.71 52 160.35 61.75 149.5 76.9167C138.65 61.75 121.29 52 101.76 52C68.125 52 41 79.0833 41 112.667C41 160.333 149.5 247 149.5 247C149.5 247 258 160.333 258 112.667C258 79.0833 230.875 52 197.24 52Z"/>
</svg>
