<svg width="300" height="300" viewBox="0 0 300 300" fill="none" xmlns="http://www.w3.org/2000/svg">
<path d="M80.1813 116.168C94.2658 102.394 113.654 94.3573 133.632 94.1964C154.66 94.027 175.689 93.8576 197.244 93.684C198.821 93.6713 200.924 93.6544 202.501 93.6417C195.612 86.8671 189.252 80.6137 182.363 73.8391C177.593 69.1491 177.53 61.2688 182.228 57.0278C186.921 52.2615 194.807 52.198 199.051 56.8923C212.3 69.9203 225.548 82.9483 238.797 95.9762C243.567 100.666 243.63 108.547 238.933 112.788C225.374 126.557 212.337 139.797 198.256 154.095C193.563 158.862 185.677 158.925 181.433 154.231C176.664 149.541 176.6 141.661 181.298 137.42C188.077 130.535 194.335 124.18 201.115 117.295C181.137 117.456 162.211 117.609 142.234 117.77C139.079 117.795 136.451 117.816 133.296 117.842C101.231 118.625 75.708 148.253 82.8005 180.244C86.0818 195.979 95.6464 208.512 109.379 216.282C120.991 221.967 133.083 221.87 145.7 221.768C161.472 221.641 161.666 245.808 145.895 245.935C133.277 246.036 121.186 246.134 109.06 242.028C92.7163 236.381 78.4287 224.937 69.3729 210.299C50.7314 180.502 55.1413 140.537 80.1813 116.168Z"/>
</svg>
